<svg width="19" height="19" viewBox="0 0 19 19" fill="none" xmlns="http://www.w3.org/2000/svg">
<g opacity="0.8">
<path d="M12.3691 12.7557L15.4614 15.848" stroke="currentColor" stroke-width="1.1" stroke-linecap="round" stroke-linejoin="round"/>
<path d="M13.9153 8.89035C13.9153 11.8791 11.4925 14.3019 8.5038 14.3019C5.51511 14.3019 3.09229 11.8791 3.09229 8.89035C3.09229 5.90168 5.51511 3.47886 8.5038 3.47886" stroke="currentColor" stroke-width="1.1" stroke-linecap="round" stroke-linejoin="round"/>
<path d="M11.9826 2.70578L12.182 3.24464C12.4434 3.95122 12.5742 4.30451 12.8319 4.56223C13.0897 4.81996 13.443 4.95069 14.1495 5.21215L14.6884 5.41154L14.1495 5.61093C13.443 5.87239 13.0897 6.00313 12.8319 6.26085C12.5742 6.51856 12.4434 6.87186 12.182 7.57844L11.9826 8.11727L11.7832 7.57844C11.5218 6.87186 11.3911 6.51856 11.1333 6.26085C10.8756 6.00313 10.5223 5.87239 9.81569 5.61093L9.27686 5.41154L9.81569 5.21215C10.5223 4.95069 10.8756 4.81996 11.1333 4.56223C11.3911 4.30451 11.5218 3.95122 11.7832 3.24464L11.9826 2.70578Z" stroke="currentColor" stroke-width="1.1" stroke-linecap="round" stroke-linejoin="round"/>
</g>
</svg>
