<?xml version="1.0" encoding="utf-8"?>
<!-- Generator: Adobe Illustrator 26.0.1, SVG Export Plug-In . SVG Version: 6.00 Build 0)  -->
<svg version="1.1" id="Layer_1" xmlns="http://www.w3.org/2000/svg" xmlns:xlink="http://www.w3.org/1999/xlink" x="0px" y="0px"
	 viewBox="0 0 20 20" style="enable-background:new 0 0 20 20;" xml:space="preserve">
<style type="text/css">
	.st0{fill:#1766A8;}
</style>
<path class="st0" d="M10.2,4.6c0-0.2-0.1-0.5-0.3-0.7C9.6,3.7,9.4,3.5,9.2,3.5H5c-0.2,0-0.5,0.1-0.7,0.3C4.1,4.1,4,4.4,4,4.6v11.9
	h6.2V4.6z M5.2,12.9L5.2,12.9c0-0.4,0.3-0.6,0.6-0.6c0.3,0,0.6,0.3,0.6,0.6v0c0,0.3-0.3,0.6-0.6,0.6C5.5,13.6,5.2,13.3,5.2,12.9z
	 M7.7,12.9L7.7,12.9c0-0.4,0.3-0.6,0.6-0.6c0.3,0,0.6,0.3,0.6,0.6v0c0,0.3-0.3,0.6-0.6,0.6C8,13.6,7.7,13.3,7.7,12.9z M13.5,12.9
	L13.5,12.9c0-0.4,0.3-0.6,0.6-0.6c0.3,0,0.6,0.3,0.6,0.6v0c0,0.3-0.3,0.6-0.6,0.6C13.8,13.6,13.5,13.3,13.5,12.9z M5.2,9.6L5.2,9.6
	C5.2,9.2,5.5,9,5.8,9c0.3,0,0.6,0.3,0.6,0.6v0c0,0.3-0.3,0.6-0.6,0.6C5.5,10.2,5.2,9.9,5.2,9.6z M7.7,9.6L7.7,9.6C7.7,9.2,8,9,8.3,9
	C8.7,9,9,9.2,9,9.6v0c0,0.3-0.3,0.6-0.6,0.6C8,10.2,7.7,9.9,7.7,9.6z M13.5,9.6L13.5,9.6c0-0.4,0.3-0.6,0.6-0.6
	c0.3,0,0.6,0.3,0.6,0.6v0c0,0.3-0.3,0.6-0.6,0.6C13.8,10.2,13.5,9.9,13.5,9.6z M5.2,6.3L5.2,6.3c0-0.4,0.3-0.6,0.6-0.6
	c0.3,0,0.6,0.3,0.6,0.6v0c0,0.3-0.3,0.6-0.6,0.6C5.5,6.9,5.2,6.6,5.2,6.3z M7.7,6.3L7.7,6.3c0-0.4,0.3-0.6,0.6-0.6
	C8.7,5.6,9,5.9,9,6.2v0c0,0.3-0.3,0.6-0.6,0.6C8,6.9,7.7,6.6,7.7,6.3z M11.5,16.5H16V7.9c0-0.2-0.1-0.5-0.3-0.7
	C15.5,7,15.2,6.9,15,6.9h-1.7c-0.3,0-0.6-0.3-0.6-0.6c0-0.3,0.3-0.6,0.6-0.6H15c0.6,0,1.2,0.3,1.6,0.7c0.4,0.4,0.7,1,0.7,1.6v8.5
	h0.2c0.3,0,0.6,0.3,0.6,0.6c0,0.3-0.3,0.6-0.6,0.6h-15c-0.3,0-0.6-0.3-0.6-0.6c0-0.3,0.3-0.6,0.6-0.6h0.2V4.6C2.7,4,3,3.4,3.4,3
	c0.4-0.4,1-0.7,1.6-0.7h4.2c0.6,0,1.2,0.3,1.6,0.7c0.4,0.4,0.7,1,0.7,1.6V16.5z"/>
</svg>
