<svg width="17" height="16" viewBox="0 0 17 16" fill="none" xmlns="http://www.w3.org/2000/svg">
<path d="M8.33301 2.29199C8.33301 2.0786 8.2199 1.81267 7.99512 1.58789C7.77048 1.36333 7.50528 1.25011 7.29199 1.25H3.125C2.9116 1.25 2.64568 1.36311 2.4209 1.58789C2.19622 1.81264 2.08301 2.07865 2.08301 2.29199V14.167H8.33301V2.29199ZM3.33301 10.6338V10.625C3.33301 10.2799 3.61298 10.0002 3.95801 10C4.30319 10 4.58301 10.2798 4.58301 10.625V10.6338C4.58276 10.9788 4.30303 11.2588 3.95801 11.2588C3.61313 11.2586 3.33325 10.9786 3.33301 10.6338ZM5.83301 10.6338V10.625C5.83301 10.2799 6.11298 10.0002 6.45801 10C6.80319 10 7.08301 10.2798 7.08301 10.625V10.6338C7.08276 10.9788 6.80303 11.2588 6.45801 11.2588C6.11313 11.2586 5.83325 10.9786 5.83301 10.6338ZM11.667 10.6338V10.625C11.667 10.2798 11.9468 10 12.292 10C12.637 10.0002 12.917 10.2799 12.917 10.625V10.6338C12.9167 10.9786 12.6369 11.2586 12.292 11.2588C11.947 11.2588 11.6672 10.9788 11.667 10.6338ZM3.33301 7.2998V7.29199C3.33301 6.94692 3.61298 6.66717 3.95801 6.66699C4.30319 6.66699 4.58301 6.94681 4.58301 7.29199V7.2998C4.58301 7.64498 4.30319 7.9248 3.95801 7.9248C3.61298 7.92463 3.33301 7.64487 3.33301 7.2998ZM5.83301 7.2998V7.29199C5.83301 6.94692 6.11298 6.66717 6.45801 6.66699C6.80319 6.66699 7.08301 6.94681 7.08301 7.29199V7.2998C7.08301 7.64498 6.80319 7.9248 6.45801 7.9248C6.11298 7.92463 5.83301 7.64487 5.83301 7.2998ZM11.667 7.2998V7.29199C11.667 6.94681 11.9468 6.66699 12.292 6.66699C12.637 6.66717 12.917 6.94692 12.917 7.29199V7.2998C12.917 7.64487 12.637 7.92463 12.292 7.9248C11.9468 7.9248 11.667 7.64498 11.667 7.2998ZM3.33301 3.9668V3.95801C3.33318 3.61309 3.61309 3.33318 3.95801 3.33301C4.30308 3.33301 4.58283 3.61298 4.58301 3.95801V3.9668C4.58294 4.31191 4.30314 4.5918 3.95801 4.5918C3.61302 4.59162 3.33308 4.31181 3.33301 3.9668ZM5.83301 3.9668V3.95801C5.83318 3.61309 6.11309 3.33318 6.45801 3.33301C6.80308 3.33301 7.08283 3.61298 7.08301 3.95801V3.9668C7.08294 4.31191 6.80314 4.5918 6.45801 4.5918C6.11302 4.59162 5.83308 4.31181 5.83301 3.9668ZM9.58301 14.167H14.167V5.625C14.167 5.4116 14.0539 5.14568 13.8291 4.9209C13.6043 4.69611 13.3384 4.58301 13.125 4.58301H11.458C11.113 4.58283 10.833 4.30308 10.833 3.95801C10.8332 3.61309 11.1131 3.33318 11.458 3.33301H13.125C13.7449 3.33301 14.3127 3.63689 14.7129 4.03711C15.1131 4.43733 15.417 5.00506 15.417 5.625V14.167H15.625C15.9702 14.167 16.25 14.4468 16.25 14.792C16.2498 15.137 15.9701 15.417 15.625 15.417H0.625C0.27993 15.417 0.000175687 15.137 0 14.792C0 14.4468 0.279822 14.167 0.625 14.167H0.833008V2.29199C0.833008 1.67214 1.13697 1.10431 1.53711 0.704102C1.93733 0.303885 2.50506 0 3.125 0H7.29199C7.9118 0.000106333 8.47974 0.303955 8.87988 0.704102C9.27994 1.1043 9.58301 1.67222 9.58301 2.29199V14.167Z" fill="#1766A8"/>
</svg>
